<svg width="160" height="220" viewBox="0 0 160 220" fill="none" xmlns="http://www.w3.org/2000/svg">
  <rect x="8" y="8" width="144" height="204" rx="12" fill="#f1f5f2" stroke="#6b9e78" stroke-width="4"/>
  <rect x="24" y="46" width="112" height="12" rx="6" fill="#6b9e78" opacity="0.85"/>
  <rect x="24" y="70" width="112" height="12" rx="6" fill="#6b9e78" opacity="0.65"/>
  <rect x="24" y="94" width="86" height="12" rx="6" fill="#6b9e78" opacity="0.45"/>
  <rect x="24" y="150" width="56" height="56" rx="8" fill="#d8f3dc" stroke="#6b9e78" stroke-width="3"/>
  <path d="M52 170c0-6.627 5.373-12 12-12h0c6.627 0 12 5.373 12 12v14c0 1.105-.895 2-2 2H54a2 2 0 0 1-2-2v-14Z" fill="#6b9e78"/>
  <path d="M59 184h14" stroke="#f1f5f2" stroke-width="3" stroke-linecap="round"/>
</svg>
